<?xml version="1.0" encoding="UTF-8"?>
<svg version="1.1" xmlns="http://www.w3.org/2000/svg" width="332" height="73">
<path d="M0 0 C5.94 0 11.88 0 18 0 C22.95 13.86 27.9 27.72 33 42 C37.18943248 30.04888235 37.18943248 30.04888235 41.37646484 18.09692383 C41.90453588 16.59192928 42.43268801 15.08696318 42.9609375 13.58203125 C43.36662964 12.42205627 43.36662964 12.42205627 43.78051758 11.23864746 C44.04421143 10.48805054 44.30790527 9.73745361 44.57958984 8.96411133 C44.91934341 7.99481438 44.91934341 7.99481438 45.26596069 7.00593567 C46.12742976 4.65176809 47.06898395 2.32754013 48 0 C53.94 0 59.88 0 66 0 C66 20.46 66 40.92 66 62 C61.38 62 56.76 62 52 62 C51.67 50.78 51.34 39.56 51 28 C47.04 39.22 43.08 50.44 39 62 C34.71 62 30.42 62 26 62 C22.04 50.45 18.08 38.9 14 27 C13.67 38.55 13.34 50.1 13 62 C8.71 62 4.42 62 0 62 C0 41.54 0 21.08 0 0 Z " fill="#FBFBFB" transform="translate(75,5)"/>
<path d="M0 0 C6.25967748 5.26492253 10.40663895 12.04301864 11.22314453 20.24023438 C11.98319499 32.41057214 11.51889709 42.43612672 3.875 52.375 C-1.93710493 58.40689041 -8.17639106 60.13092856 -16.36401367 60.41772461 C-26.59273552 60.50718865 -33.56276628 59.08631988 -41.23828125 51.96875 C-49.2447774 43.02135741 -48.60405487 31.63063208 -48.17919922 20.34130859 C-47.58608518 12.59203932 -43.73627537 6.1231343 -38 1 C-27.92449402 -6.16868972 -10.47116678 -6.96765609 0 0 Z M-30.375 12.3125 C-34.99619569 19.95524672 -35.13372097 28.87409591 -33.53515625 37.51171875 C-31.93768241 42.47428541 -29.36716344 45.28082276 -25 48 C-19.74194227 49.6244406 -15.06155612 49.19652436 -10 47 C-5.31704158 42.42110732 -3.28006354 38.13525675 -2.69921875 31.6328125 C-2.65672906 19.84749815 -2.65672906 19.84749815 -8.6875 10.0625 C-16.10280611 5.44542261 -24.0287035 6.1332113 -30.375 12.3125 Z " fill="#FCFCFC" transform="translate(52,8)"/>
<path d="M0 0 C0.83869629 0.00499512 1.67739258 0.00999023 2.54150391 0.01513672 C10.1044581 0.22786773 15.73016009 1.86941292 21.390625 7.0625 C23.721227 9.6236011 24.6875 10.98235741 24.6875 14.5 C23.25738027 15.36646667 21.81809381 16.21781829 20.375 17.0625 C19.57449219 17.53816406 18.77398437 18.01382812 17.94921875 18.50390625 C15.6875 19.5 15.6875 19.5 12.6875 18.5 C12.171875 17.695625 11.65625 16.89125 11.125 16.0625 C7.53275928 12.28604181 3.78038066 11.82223473 -1.3125 11.5 C-5.81671898 12.09071724 -7.73415196 12.98591285 -11.125 16 C-16.08254086 22.79003121 -15.67913763 31.44063245 -14.83984375 39.4375 C-13.97844604 44.43998747 -12.88637725 48.64538175 -8.62109375 51.71875 C-3.85532477 53.95240334 0.51290016 53.68427496 5.546875 52.42578125 C7.98012208 51.58354655 7.98012208 51.58354655 9.75 48.75 C10.8758034 45.08200505 10.8758034 45.08200505 11.6875 39.5 C6.7375 39.5 1.7875 39.5 -3.3125 39.5 C-3.3125 36.2 -3.3125 32.9 -3.3125 29.5 C6.2575 29.5 15.8275 29.5 25.6875 29.5 C25.6875 40.72 25.6875 51.94 25.6875 63.5 C21.0675 63.5 16.4475 63.5 11.6875 63.5 C11.1925 61.52 11.1925 61.52 10.6875 59.5 C9.90375 60.139375 9.12 60.77875 8.3125 61.4375 C2.55240744 65.96328701 -4.2999833 64.90598781 -11.3125 64.5 C-17.0484117 63.28183815 -22.25154873 59.58804829 -25.50390625 54.71484375 C-31.18793313 44.16478648 -32.10439048 31.08852224 -29.0625 19.5546875 C-26.12046136 11.49472748 -20.7107323 5.78926625 -13.16796875 1.86328125 C-8.82372567 0.08520189 -4.64872673 -0.03616604 0 0 Z " fill="#FBFCFC" transform="translate(235.3125,3.5)"/>
<path d="M0 0 C5.94 0 11.88 0 18 0 C20.44476274 7.04951901 22.88790445 14.09959487 25.32825279 21.15064335 C26.46165235 24.4252387 27.59574076 27.69959196 28.73144531 30.97338867 C30.03920513 34.74325426 31.34389281 38.51417686 32.6484375 42.28515625 C33.25635635 44.03554955 33.25635635 44.03554955 33.8765564 45.82130432 C34.25679962 46.92191696 34.63704285 48.0225296 35.02880859 49.15649414 C35.36190033 50.11801895 35.69499207 51.07954376 36.03817749 52.07020569 C37.11553254 55.35192208 38.05110366 58.67886282 39 62 C34.05 62 29.1 62 24 62 C20 49.25 20 49.25 20 47 C12.41 47 4.82 47 -3 47 C-3.66 49.97 -4.32 52.94 -5 56 C-5.66 57.98 -6.32 59.96 -7 62 C-11.62 62 -16.24 62 -21 62 C-19.58511479 54.9533079 -17.53350876 48.32037335 -15.15625 41.54296875 C-14.78649048 40.47758377 -14.41673096 39.41219879 -14.0357666 38.31452942 C-13.25816461 36.07742625 -12.4781364 33.84116507 -11.69580078 31.60571289 C-10.49826737 28.18254725 -9.30909805 24.75656101 -8.12109375 21.33007812 C-7.36246838 19.1508713 -6.6033703 16.97182897 -5.84375 14.79296875 C-5.31086365 13.25856392 -5.31086365 13.25856392 -4.76721191 11.69316101 C-4.43346558 10.74149551 -4.09971924 9.78983002 -3.75585938 8.80932617 C-3.46432983 7.97487473 -3.17280029 7.14042328 -2.87243652 6.28068542 C-2 4 -2 4 0 0 Z M8 14 C6.82847622 17.45670732 5.66360923 20.91562122 4.5 24.375 C3.99919922 25.85226563 3.99919922 25.85226563 3.48828125 27.359375 C3.17246094 28.30039062 2.85664063 29.24140625 2.53125 30.2109375 C2.23798828 31.08024902 1.94472656 31.94956055 1.64257812 32.84521484 C0.90474212 34.94467299 0.90474212 34.94467299 1 37 C5.95 37 10.9 37 16 37 C15.35566405 33.13398431 14.86949609 30.23477641 13.58984375 26.6953125 C13.18862305 25.57382812 13.18862305 25.57382812 12.77929688 24.4296875 C12.50150391 23.66914063 12.22371094 22.90859375 11.9375 22.125 C11.65583984 21.34125 11.37417969 20.5575 11.08398438 19.75 C10.39386218 17.83169424 9.69755684 15.91561481 9 14 C8.67 14 8.34 14 8 14 Z " fill="#FCFCFC" transform="translate(288,5)"/>
<path d="M0 0 C14.19 0 28.38 0 43 0 C43 3.3 43 6.6 43 10 C33.43 10 23.86 10 14 10 C14 14.95 14 19.9 14 25 C22.25 25 30.5 25 39 25 C39 28.3 39 31.6 39 35 C30.75 35 22.5 35 14 35 C14 40.61 14 46.22 14 52 C23.57 52 33.14 52 43 52 C43 55.3 43 58.6 43 62 C28.81 62 14.62 62 0 62 C0 41.54 0 21.08 0 0 Z " fill="#FDFDFD" transform="translate(156,5)"/>
<path d="M0 0 C0.66 0.33 1.32 0.66 2 1 C2 4.96 2 8.92 2 13 C1.01 13.495 1.01 13.495 0 14 C-0.33 11.36 -0.66 8.72 -1 6 C-1.66 6.99 -2.32 7.98 -3 9 C-3.36923077 3.46153846 -3.36923077 3.46153846 -1.5 1.125 C-1.005 0.75375 -0.51 0.3825 0 0 Z " fill="#E9ECEC" transform="translate(127,27)"/>
</svg>
