<?xml version="1.0" encoding="UTF-8"?>
<svg version="1.1" xmlns="http://www.w3.org/2000/svg" width="528" height="528">
<path d="M0 0 C2.63162788 0.50595292 5.00650322 0.63955678 7.68212891 0.65478516 C25.37960936 0.94605954 43.91312638 2.36326473 60.67431641 8.51416016 C62.40117829 9.04258495 64.13023904 9.56389849 65.86181641 10.07666016 C68.48241241 10.85358032 71.0807957 11.64965325 73.67431641 12.51416016 C73.67431641 13.17416016 73.67431641 13.83416016 73.67431641 14.51416016 C75.98431641 14.84416016 78.29431641 15.17416016 80.67431641 15.51416016 C80.67431641 16.17416016 80.67431641 16.83416016 80.67431641 17.51416016 C82.65431641 17.84416016 84.63431641 18.17416016 86.67431641 18.51416016 C86.67431641 19.17416016 86.67431641 19.83416016 86.67431641 20.51416016 C87.41681641 20.45228516 88.15931641 20.39041016 88.92431641 20.32666016 C92.17766626 20.54847946 93.21732732 21.46666925 95.67431641 23.51416016 C96.66431641 23.84416016 97.65431641 24.17416016 98.67431641 24.51416016 C98.67431641 25.17416016 98.67431641 25.83416016 98.67431641 26.51416016 C99.99431641 26.51416016 101.31431641 26.51416016 102.67431641 26.51416016 C102.67431641 27.17416016 102.67431641 27.83416016 102.67431641 28.51416016 C103.66431641 28.51416016 104.65431641 28.51416016 105.67431641 28.51416016 C105.67431641 29.17416016 105.67431641 29.83416016 105.67431641 30.51416016 C106.47869141 30.63791016 107.28306641 30.76166016 108.11181641 30.88916016 C108.95744141 31.09541016 109.80306641 31.30166016 110.67431641 31.51416016 C111.00431641 32.17416016 111.33431641 32.83416016 111.67431641 33.51416016 C112.66431641 33.84416016 113.65431641 34.17416016 114.67431641 34.51416016 C114.67431641 35.17416016 114.67431641 35.83416016 114.67431641 36.51416016 C115.66431641 36.84416016 116.65431641 37.17416016 117.67431641 37.51416016 C117.67431641 38.17416016 117.67431641 38.83416016 117.67431641 39.51416016 C118.99431641 39.84416016 120.31431641 40.17416016 121.67431641 40.51416016 C121.67431641 41.17416016 121.67431641 41.83416016 121.67431641 42.51416016 C122.66431641 42.84416016 123.65431641 43.17416016 124.67431641 43.51416016 C124.67431641 44.17416016 124.67431641 44.83416016 124.67431641 45.51416016 C125.66431641 45.84416016 126.65431641 46.17416016 127.67431641 46.51416016 C127.67431641 47.17416016 127.67431641 47.83416016 127.67431641 48.51416016 C128.66431641 48.84416016 129.65431641 49.17416016 130.67431641 49.51416016 C133.67431641 52.9586046 133.67431641 52.9586046 133.67431641 55.51416016 C134.66431641 55.84416016 135.65431641 56.17416016 136.67431641 56.51416016 C136.67431641 57.17416016 136.67431641 57.83416016 136.67431641 58.51416016 C137.33431641 58.51416016 137.99431641 58.51416016 138.67431641 58.51416016 C139.00431641 59.50416016 139.33431641 60.49416016 139.67431641 61.51416016 C140.10744141 61.94728516 140.54056641 62.38041016 140.98681641 62.82666016 C144.13242343 65.97226718 146.67431641 68.98803238 146.67431641 73.51416016 C147.33431641 73.51416016 147.99431641 73.51416016 148.67431641 73.51416016 C149.00431641 75.16416016 149.33431641 76.81416016 149.67431641 78.51416016 C150.33431641 78.51416016 150.99431641 78.51416016 151.67431641 78.51416016 C156.26657153 87.92418294 156.26657153 87.92418294 155.67431641 92.51416016 C156.33431641 92.51416016 156.99431641 92.51416016 157.67431641 92.51416016 C161.60329145 102.64573033 164.72331039 112.66364312 165.46337891 123.55322266 C165.56717248 125.59069482 165.56717248 125.59069482 166.67431641 127.51416016 C166.91327343 130.29019172 167.0997445 133.04528995 167.23681641 135.82666016 C167.27709961 136.64046143 167.31738281 137.4542627 167.35888672 138.29272461 C167.47170529 140.69959973 167.57396425 143.1067376 167.67431641 145.51416016 C167.75746094 147.27373047 167.75746094 147.27373047 167.84228516 149.06884766 C168.06383766 157.53004311 166.49503568 165.28056266 164.67431641 173.51416016 C164.3098885 175.51231589 163.95462099 177.51218137 163.61181641 179.51416016 C162.88197065 183.61724258 161.91200652 187.5358705 160.67431641 191.51416016 C160.01431641 191.51416016 159.35431641 191.51416016 158.67431641 191.51416016 C158.57119141 192.50416016 158.46806641 193.49416016 158.36181641 194.51416016 C157.76622935 198.79713178 156.28836614 202.51412386 154.67431641 206.51416016 C154.01431641 206.51416016 153.35431641 206.51416016 152.67431641 206.51416016 C152.57119141 207.23603516 152.46806641 207.95791016 152.36181641 208.70166016 C151.60637693 211.79209437 150.51900325 213.93159857 148.67431641 216.51416016 C148.01431641 216.51416016 147.35431641 216.51416016 146.67431641 216.51416016 C146.52994141 217.29791016 146.38556641 218.08166016 146.23681641 218.88916016 C145.67431641 221.51416016 145.67431641 221.51416016 144.67431641 223.51416016 C144.01431641 223.51416016 143.35431641 223.51416016 142.67431641 223.51416016 C142.42681641 224.25666016 142.17931641 224.99916016 141.92431641 225.76416016 C140.57526848 228.7320656 138.99380954 230.26948938 136.67431641 232.51416016 C136.34431641 233.50416016 136.01431641 234.49416016 135.67431641 235.51416016 C135.01431641 235.51416016 134.35431641 235.51416016 133.67431641 235.51416016 C133.34431641 236.83416016 133.01431641 238.15416016 132.67431641 239.51416016 C132.01431641 239.51416016 131.35431641 239.51416016 130.67431641 239.51416016 C130.34431641 240.50416016 130.01431641 241.49416016 129.67431641 242.51416016 C128.23681641 244.20166016 128.23681641 244.20166016 126.67431641 245.51416016 C126.01431641 245.51416016 125.35431641 245.51416016 124.67431641 245.51416016 C124.67431641 246.17416016 124.67431641 246.83416016 124.67431641 247.51416016 C124.03494141 247.61728516 123.39556641 247.72041016 122.73681641 247.82666016 C121.71587891 248.16697266 121.71587891 248.16697266 120.67431641 248.51416016 C120.34431641 249.50416016 120.01431641 250.49416016 119.67431641 251.51416016 C119.01431641 251.51416016 118.35431641 251.51416016 117.67431641 251.51416016 C117.67431641 252.17416016 117.67431641 252.83416016 117.67431641 253.51416016 C116.68431641 253.84416016 115.69431641 254.17416016 114.67431641 254.51416016 C113.93181641 255.28759766 113.93181641 255.28759766 113.17431641 256.07666016 C111.67431641 257.51416016 111.67431641 257.51416016 108.67431641 257.51416016 C108.34431641 258.50416016 108.01431641 259.49416016 107.67431641 260.51416016 C106.68431641 260.51416016 105.69431641 260.51416016 104.67431641 260.51416016 C104.67431641 261.17416016 104.67431641 261.83416016 104.67431641 262.51416016 C102.2629016 263.85783408 99.84597653 265.1891853 97.42431641 266.51416016 C96.74240234 266.89572266 96.06048828 267.27728516 95.35791016 267.67041016 C94.69404297 268.03134766 94.03017578 268.39228516 93.34619141 268.76416016 C92.7387207 269.09931641 92.13125 269.43447266 91.50537109 269.77978516 C89.67431641 270.51416016 89.67431641 270.51416016 85.67431641 270.51416016 C85.67431641 271.17416016 85.67431641 271.83416016 85.67431641 272.51416016 C83.69431641 272.84416016 81.71431641 273.17416016 79.67431641 273.51416016 C79.67431641 274.17416016 79.67431641 274.83416016 79.67431641 275.51416016 C75.71431641 275.84416016 71.75431641 276.17416016 67.67431641 276.51416016 C67.67431641 277.17416016 67.67431641 277.83416016 67.67431641 278.51416016 C65.69431641 278.51416016 63.71431641 278.51416016 61.67431641 278.51416016 C61.69494141 279.71041016 61.71556641 280.90666016 61.73681641 282.13916016 C61.74314212 285.69420885 61.37320516 289.01971639 60.67431641 292.51416016 C61.20038986 292.35117432 61.72646332 292.18818848 62.26847839 292.02026367 C65.28417914 291.38586653 68.08451778 291.4025878 71.16772461 291.41650391 C72.48621902 291.41980713 73.80471344 291.42311035 75.16316223 291.42651367 C75.86548288 291.43063263 76.56780354 291.43475159 77.29140663 291.43899536 C79.49898367 291.45179869 81.70650033 291.45828525 83.91410828 291.46313477 C89.39882517 291.47648345 94.88348481 291.50063836 100.36816406 291.52453613 C105.00201793 291.5443267 109.63585003 291.55994531 114.26973534 291.57009888 C116.43607375 291.57654405 118.60232189 291.58905405 120.76863098 291.60180664 C122.10999475 291.60544277 123.45135932 291.60879405 124.79272461 291.61181641 C126.53668266 291.61967163 126.53668266 291.61967163 128.31587219 291.62768555 C131.83184583 291.50883519 135.20004144 291.05103085 138.67431641 290.51416016 C140.31916707 290.45359864 141.96604598 290.42634061 143.61181641 290.45166016 C144.38396484 290.46068359 145.15611328 290.46970703 145.95166016 290.47900391 C146.804375 290.49640625 146.804375 290.49640625 147.67431641 290.51416016 C147.67431641 289.85416016 147.67431641 289.19416016 147.67431641 288.51416016 C149.98431641 288.18416016 152.29431641 287.85416016 154.67431641 287.51416016 C155.00431641 286.52416016 155.33431641 285.53416016 155.67431641 284.51416016 C156.33431641 284.51416016 156.99431641 284.51416016 157.67431641 284.51416016 C158.00431641 282.86416016 158.33431641 281.21416016 158.67431641 279.51416016 C159.33431641 279.51416016 159.99431641 279.51416016 160.67431641 279.51416016 C161.00431641 276.87416016 161.33431641 274.23416016 161.67431641 271.51416016 C162.33431641 271.51416016 162.99431641 271.51416016 163.67431641 271.51416016 C163.01431641 270.19416016 162.35431641 268.87416016 161.67431641 267.51416016 C162.67431641 266.01416016 162.67431641 266.01416016 164.67431641 264.51416016 C168.87593248 264.24739088 172.64393275 264.17069894 176.67431641 265.51416016 C176.67431641 266.17416016 176.67431641 266.83416016 176.67431641 267.51416016 C176.01431641 267.51416016 175.35431641 267.51416016 174.67431641 267.51416016 C174.68684448 268.27171097 174.69937256 269.02926178 174.71228027 269.80976868 C174.83025543 276.946162 174.9479945 284.08255916 175.06546783 291.21896076 C175.12587144 294.88791937 175.18636659 298.55687642 175.24707031 302.22583008 C175.30564034 305.7660252 175.36397073 309.30622419 175.4221344 312.84642601 C175.45520642 314.85557195 175.48852713 316.8647138 175.52185059 318.87385559 C175.54187134 320.09489487 175.56189209 321.31593414 175.58251953 322.57397461 C175.60028442 323.65097122 175.61804932 324.72796783 175.63635254 325.83760071 C175.68249598 329.09084301 175.71405397 331.39494746 174.67431641 334.51416016 C171.56877376 335.74737741 168.45689559 335.62688718 165.15083313 335.60317993 C164.02769714 335.5975856 162.90456116 335.59199127 161.74739075 335.58622742 C160.51969467 335.57485245 159.2919986 335.56347748 158.02709961 335.55175781 C156.73089691 335.54375656 155.43469421 335.53575531 154.09921265 335.5275116 C150.54779625 335.50534253 146.99645979 335.47666852 143.44510293 335.44655657 C139.73134344 335.41588649 136.01754848 335.39027045 132.30375671 335.36386108 C126.07039174 335.31869526 119.83707182 335.26921333 113.60375977 335.21728516 C106.3885237 335.15723996 99.17326139 335.10448749 91.95794231 335.05551684 C85.02313967 335.00824508 78.08838977 334.95540714 71.15364647 334.90015793 C68.19872249 334.87674129 65.24379402 334.85537595 62.28884315 334.8356514 C58.17028538 334.80789831 54.0518373 334.77205866 49.93334961 334.73535156 C48.69958084 334.72802505 47.46581207 334.72069855 46.19465637 334.71315002 C44.5226416 334.69629906 44.5226416 334.69629906 42.81684875 334.67910767 C41.84217809 334.6713563 40.86750742 334.66360493 39.86330128 334.65561867 C37.67431641 334.51416016 37.67431641 334.51416016 36.67431641 333.51416016 C36.74327841 331.80264854 36.88460719 330.0941231 37.04931641 328.38916016 C37.44188615 323.89696969 37.73396061 319.42712468 37.89697266 314.92041016 C37.93322754 313.92799316 37.96948242 312.93557617 38.00683594 311.91308594 C38.07523362 309.94291454 38.13770478 307.97252566 38.19335938 306.00195312 C38.40018064 300.24757201 39.1047908 294.83378866 40.2175293 289.18798828 C41.07218609 284.18520836 41.10591062 279.14590109 41.24072266 274.08251953 C41.27037109 273.2878125 41.30001953 272.49310547 41.33056641 271.67431641 C41.34925781 270.96927979 41.36794922 270.26424316 41.38720703 269.5378418 C41.72434653 267.16152437 42.40796752 265.54838395 43.67431641 263.51416016 C46.04931641 262.38916016 46.04931641 262.38916016 48.67431641 261.51416016 C49.35494141 261.14291016 50.03556641 260.77166016 50.73681641 260.38916016 C52.67431641 259.51416016 52.67431641 259.51416016 56.67431641 259.51416016 C56.67431641 258.85416016 56.67431641 258.19416016 56.67431641 257.51416016 C58.61572266 256.18212891 58.61572266 256.18212891 61.23681641 254.70166016 C64.50907743 252.81256762 67.63987621 250.8909329 70.67431641 248.63916016 C73.67431641 246.51416016 73.67431641 246.51416016 75.67431641 246.51416016 C76.00431641 245.52416016 76.33431641 244.53416016 76.67431641 243.51416016 C77.33431641 243.51416016 77.99431641 243.51416016 78.67431641 243.51416016 C78.92181641 242.95728516 79.16931641 242.40041016 79.42431641 241.82666016 C80.90356459 239.09005102 82.6089908 236.83765146 84.67431641 234.51416016 C85.33431641 234.51416016 85.99431641 234.51416016 86.67431641 234.51416016 C86.67431641 233.52416016 86.67431641 232.53416016 86.67431641 231.51416016 C87.33431641 231.51416016 87.99431641 231.51416016 88.67431641 231.51416016 C89.00431641 230.19416016 89.33431641 228.87416016 89.67431641 227.51416016 C90.33431641 227.51416016 90.99431641 227.51416016 91.67431641 227.51416016 C92.00431641 225.86416016 92.33431641 224.21416016 92.67431641 222.51416016 C93.33431641 222.51416016 93.99431641 222.51416016 94.67431641 222.51416016 C95.00431641 220.53416016 95.33431641 218.55416016 95.67431641 216.51416016 C96.33431641 216.51416016 96.99431641 216.51416016 97.67431641 216.51416016 C98.00431641 214.20416016 98.33431641 211.89416016 98.67431641 209.51416016 C99.33431641 209.51416016 99.99431641 209.51416016 100.67431641 209.51416016 C100.72330078 208.77810547 100.77228516 208.04205078 100.82275391 207.28369141 C100.93490234 205.81996094 100.93490234 205.81996094 101.04931641 204.32666016 C101.11892578 203.36373047 101.18853516 202.40080078 101.26025391 201.40869141 C101.67431641 198.51416016 101.67431641 198.51416016 102.64697266 196.14697266 C103.9947383 192.6930029 104.3462481 189.23441721 104.73681641 185.57666016 C105.61129331 177.83645547 105.61129331 177.83645547 106.19506836 174.85107422 C106.80326328 170.61632733 106.81741362 166.48555122 106.80712891 162.21337891 C106.80808563 161.33639847 106.80904236 160.45941803 106.81002808 159.55586243 C106.81070575 157.71277799 106.80888035 155.86969112 106.8046875 154.02661133 C106.79930114 151.19363126 106.80466286 148.36080741 106.81103516 145.52783203 C106.81037493 143.73551397 106.80909493 141.94319601 106.80712891 140.15087891 C106.81016525 138.87442757 106.81016525 138.87442757 106.81326294 137.57218933 C107.17560739 133.73369697 107.17560739 133.73369697 105.67431641 130.51416016 C105.34477998 127.74305839 105.05969133 124.97936442 104.79931641 122.20166016 C104.14082407 115.63751764 103.13466721 109.43930842 101.26025391 103.09228516 C100.59588268 100.16905174 100.57820832 97.5022479 100.67431641 94.51416016 C100.01431641 94.51416016 99.35431641 94.51416016 98.67431641 94.51416016 C95.91729452 89.71933948 95.14103267 85.92806884 94.67431641 80.51416016 C94.01431641 80.51416016 93.35431641 80.51416016 92.67431641 80.51416016 C92.34431641 78.53416016 92.01431641 76.55416016 91.67431641 74.51416016 C91.01431641 74.51416016 90.35431641 74.51416016 89.67431641 74.51416016 C85.67431641 69.22004251 85.67431641 69.22004251 85.67431641 65.51416016 C85.01431641 65.51416016 84.35431641 65.51416016 83.67431641 65.51416016 C81.50227641 62.55228743 79.83869644 60.00730025 78.67431641 56.51416016 C77.68431641 56.18416016 76.69431641 55.85416016 75.67431641 55.51416016 C75.67431641 54.52416016 75.67431641 53.53416016 75.67431641 52.51416016 C74.68431641 52.18416016 73.69431641 51.85416016 72.67431641 51.51416016 C72.67431641 50.85416016 72.67431641 50.19416016 72.67431641 49.51416016 C71.68431641 49.51416016 70.69431641 49.51416016 69.67431641 49.51416016 C69.67431641 48.85416016 69.67431641 48.19416016 69.67431641 47.51416016 C69.10197266 47.24603516 68.52962891 46.97791016 67.93994141 46.70166016 C65.59547006 45.4728338 63.55026703 44.08893839 61.42431641 42.51416016 C60.71791016 41.99853516 60.01150391 41.48291016 59.28369141 40.95166016 C58.75259766 40.47728516 58.22150391 40.00291016 57.67431641 39.51416016 C57.67431641 38.85416016 57.67431641 38.19416016 57.67431641 37.51416016 C57.13806641 37.41103516 56.60181641 37.30791016 56.04931641 37.20166016 C53.04929597 36.33323319 50.43636291 34.95795719 47.67431641 33.51416016 C47.67431641 32.85416016 47.67431641 32.19416016 47.67431641 31.51416016 C45.69431641 31.18416016 43.71431641 30.85416016 41.67431641 30.51416016 C41.67431641 29.85416016 41.67431641 29.19416016 41.67431641 28.51416016 C39.36431641 28.18416016 37.05431641 27.85416016 34.67431641 27.51416016 C34.67431641 26.85416016 34.67431641 26.19416016 34.67431641 25.51416016 C33.70945312 25.44068359 33.70945312 25.44068359 32.72509766 25.36572266 C27.6504199 24.94584918 22.67208694 24.36931493 17.65478516 23.49462891 C10.63479433 22.4002672 3.76936502 22.18208221 -3.32568359 22.20166016 C-5.07751953 22.17749023 -5.07751953 22.17749023 -6.86474609 22.15283203 C-17.35353244 22.14701785 -26.98154157 24.17340483 -36.88818359 27.57666016 C-37.83822266 27.89763672 -38.78826172 28.21861328 -39.76708984 28.54931641 C-42.29993778 29.44633877 -42.29993778 29.44633877 -44.47802734 30.63525391 C-46.32568359 31.51416016 -46.32568359 31.51416016 -49.32568359 31.51416016 C-49.32568359 32.17416016 -49.32568359 32.83416016 -49.32568359 33.51416016 C-50.97568359 33.84416016 -52.62568359 34.17416016 -54.32568359 34.51416016 C-54.32568359 35.17416016 -54.32568359 35.83416016 -54.32568359 36.51416016 C-55.64568359 36.84416016 -56.96568359 37.17416016 -58.32568359 37.51416016 C-58.32568359 38.17416016 -58.32568359 38.83416016 -58.32568359 39.51416016 C-59.31568359 39.51416016 -60.30568359 39.51416016 -61.32568359 39.51416016 C-61.65568359 40.50416016 -61.98568359 41.49416016 -62.32568359 42.51416016 C-64.03271484 43.72509766 -64.03271484 43.72509766 -66.13818359 44.88916016 C-69.70514456 47.00644715 -71.88546495 49.11528419 -74.32568359 52.51416016 C-76.45068359 54.82666016 -76.45068359 54.82666016 -78.32568359 56.51416016 C-78.98568359 56.51416016 -79.64568359 56.51416016 -80.32568359 56.51416016 C-80.42880859 57.09166016 -80.53193359 57.66916016 -80.63818359 58.26416016 C-81.43464824 60.87077173 -82.51633636 62.48769126 -84.32568359 64.51416016 C-84.98568359 64.51416016 -85.64568359 64.51416016 -86.32568359 64.51416016 C-86.82068359 66.49416016 -86.82068359 66.49416016 -87.32568359 68.51416016 C-87.98568359 68.51416016 -88.64568359 68.51416016 -89.32568359 68.51416016 C-89.43138672 69.05427734 -89.53708984 69.59439453 -89.64599609 70.15087891 C-90.49205582 73.09263828 -91.79717618 75.60692814 -93.20068359 78.32666016 C-95.89928804 83.63326842 -98.44029905 88.85800653 -100.32568359 94.51416016 C-100.98568359 94.51416016 -101.64568359 94.51416016 -102.32568359 94.51416016 C-102.23287109 96.21572266 -102.23287109 96.21572266 -102.13818359 97.95166016 C-102.12347639 102.12115211 -103.16057063 105.37971462 -104.59130859 109.26025391 C-105.69765435 112.65579381 -106.00303386 115.96501311 -106.32568359 119.51416016 C-106.98568359 119.51416016 -107.64568359 119.51416016 -108.32568359 119.51416016 C-108.15182129 120.04759033 -107.97795898 120.58102051 -107.79882812 121.13061523 C-107.20805198 124.10674913 -107.46958885 126.62876508 -107.75537109 129.65087891 C-108.38379442 137.45363349 -108.47781211 145.20439911 -108.45605469 153.02954102 C-108.45064881 155.34153675 -108.45606211 157.65334178 -108.46240234 159.96533203 C-108.46608506 167.1973174 -108.46432052 174.35357722 -107.32568359 181.51416016 C-106.99568359 181.84416016 -106.66568359 182.17416016 -106.32568359 182.51416016 C-105.99895517 184.84284271 -105.71494149 187.17756399 -105.45068359 189.51416016 C-104.69995832 195.51433896 -103.5944072 200.90907831 -101.32568359 206.51416016 C-100.54078355 208.45332498 -99.75599729 210.39252702 -98.97314453 212.33251953 C-98.4248495 213.68305677 -97.86971264 215.03084044 -97.30712891 216.37548828 C-96.11991516 219.25893554 -95.32568359 221.36239636 -95.32568359 224.51416016 C-94.66568359 224.51416016 -94.00568359 224.51416016 -93.32568359 224.51416016 C-92.99568359 225.83416016 -92.66568359 227.15416016 -92.32568359 228.51416016 C-91.66568359 228.51416016 -91.00568359 228.51416016 -90.32568359 228.51416016 C-86.32568359 235.26416016 -86.32568359 235.26416016 -86.32568359 237.51416016 C-85.33568359 237.84416016 -84.34568359 238.17416016 -83.32568359 238.51416016 C-83.32568359 239.17416016 -83.32568359 239.83416016 -83.32568359 240.51416016 C-82.33568359 240.84416016 -81.34568359 241.17416016 -80.32568359 241.51416016 C-80.03693359 242.33916016 -79.74818359 243.16416016 -79.45068359 244.01416016 C-79.07943359 244.83916016 -78.70818359 245.66416016 -78.32568359 246.51416016 C-75.77793053 247.40802179 -75.77793053 247.40802179 -73.32568359 247.51416016 C-73.32568359 248.50416016 -73.32568359 249.49416016 -73.32568359 250.51416016 C-72.49037109 250.66884766 -72.49037109 250.66884766 -71.63818359 250.82666016 C-68.84877349 251.65594424 -66.71177719 252.85715071 -64.32568359 254.51416016 C-64.32568359 255.17416016 -64.32568359 255.83416016 -64.32568359 256.51416016 C-62.67568359 256.84416016 -61.02568359 257.17416016 -59.32568359 257.51416016 C-59.32568359 258.17416016 -59.32568359 258.83416016 -59.32568359 259.51416016 C-58.48005859 259.61728516 -57.63443359 259.72041016 -56.76318359 259.82666016 C-52.91125659 260.59704556 -49.88493328 261.8769053 -46.32568359 263.51416016 C-46.32568359 264.17416016 -46.32568359 264.83416016 -46.32568359 265.51416016 C-45.33568359 265.84416016 -44.34568359 266.17416016 -43.32568359 266.51416016 C-43.65568359 267.50416016 -43.98568359 268.49416016 -44.32568359 269.51416016 C-43.99568359 269.84416016 -43.66568359 270.17416016 -43.32568359 270.51416016 C-43.09687711 272.37845354 -42.93036215 274.25046589 -42.79052734 276.12353516 C-42.70351562 277.27080078 -42.61650391 278.41806641 -42.52685547 279.60009766 C-42.43984375 280.80923828 -42.35283203 282.01837891 -42.26318359 283.26416016 C-42.12686523 285.05466797 -42.12686523 285.05466797 -41.98779297 286.88134766 C-41.31746006 295.89304124 -41.31746006 295.89304124 -41.36303711 299.33544922 C-41.57844441 301.4930265 -41.57844441 301.4930265 -40.32568359 302.51416016 C-40.11055648 305.16440665 -39.94908417 307.79686501 -39.82568359 310.45166016 C-39.54822347 321.64494943 -39.54822347 321.64494943 -37.32568359 332.51416016 C-37.98568359 333.50416016 -38.64568359 334.49416016 -39.32568359 335.51416016 C-41.68012428 335.88330364 -41.68012428 335.88330364 -44.6913147 335.87492371 C-45.82997482 335.8790477 -46.96863495 335.88317169 -48.14179993 335.88742065 C-49.39695908 335.87663483 -50.65211823 335.865849 -51.9453125 335.85473633 C-53.92084862 335.85539345 -53.92084862 335.85539345 -55.93629456 335.85606384 C-59.5539513 335.85692671 -63.17131133 335.83925418 -66.78889894 335.81834197 C-70.56720773 335.79962349 -74.34552286 335.79782855 -78.12387085 335.79426575 C-85.28143704 335.78493103 -92.43886622 335.76029807 -99.59637201 335.73021728 C-107.74376521 335.69671753 -115.89116485 335.68019842 -124.03860974 335.66513097 C-140.80104798 335.63374966 -157.56334832 335.5809616 -174.32568359 335.51416016 C-176.34861299 331.79887862 -176.54224184 329.26181238 -176.4609375 325.00146484 C-176.45147598 324.35714508 -176.44201447 323.71282532 -176.43226624 323.04898071 C-176.39869463 320.92770347 -176.350552 318.80702372 -176.30224609 316.68603516 C-176.27606794 315.21203149 -176.25080181 313.73801136 -176.22640991 312.26397705 C-176.15986674 308.39057537 -176.08095103 304.51752116 -175.99945068 300.64440918 C-175.91842507 296.68966983 -175.84911073 292.7347271 -175.77880859 288.77978516 C-175.63922382 281.02433041 -175.48656674 273.26920541 -175.32568359 265.51416016 C-171.69568359 265.51416016 -168.06568359 265.51416016 -164.32568359 265.51416016 C-164.32568359 268.15416016 -164.32568359 270.79416016 -164.32568359 273.51416016 C-163.66568359 273.51416016 -163.00568359 273.51416016 -162.32568359 273.51416016 C-161.99568359 276.15416016 -161.66568359 278.79416016 -161.32568359 281.51416016 C-160.33568359 281.84416016 -159.34568359 282.17416016 -158.32568359 282.51416016 C-158.32568359 283.17416016 -158.32568359 283.83416016 -158.32568359 284.51416016 C-157.33568359 284.84416016 -156.34568359 285.17416016 -155.32568359 285.51416016 C-155.32568359 286.17416016 -155.32568359 286.83416016 -155.32568359 287.51416016 C-154.08818359 287.63791016 -152.85068359 287.76166016 -151.57568359 287.88916016 C-149.21886152 288.12484236 -147.56088222 288.38994873 -145.45639038 289.50135803 C-137.25717423 293.3987425 -125.940795 291.64351353 -117.03662109 291.61181641 C-115.48149664 291.60994752 -113.92637159 291.60852584 -112.37124634 291.60752869 C-108.31071297 291.60374052 -104.2502163 291.59394256 -100.18969727 291.58282471 C-96.03320817 291.57253031 -91.87671306 291.56801399 -87.72021484 291.56298828 C-79.58868584 291.55231636 -71.45719354 291.53475027 -63.32568359 291.51416016 C-62.99568359 287.22416016 -62.66568359 282.93416016 -62.32568359 278.51416016 C-64.30568359 278.51416016 -66.28568359 278.51416016 -68.32568359 278.51416016 C-68.32568359 277.85416016 -68.32568359 277.19416016 -68.32568359 276.51416016 C-69.48068359 276.41103516 -70.63568359 276.30791016 -71.82568359 276.20166016 C-76.33739879 275.65380903 -80.13174108 274.23667226 -84.32568359 272.51416016 C-84.32568359 271.85416016 -84.32568359 271.19416016 -84.32568359 270.51416016 C-85.37755859 270.41103516 -86.42943359 270.30791016 -87.51318359 270.20166016 C-91.33654516 269.51220151 -93.15922063 268.65152266 -96.32568359 266.51416016 C-97.59154878 265.77640225 -98.86261989 265.0475198 -100.13818359 264.32666016 C-101.19005859 263.72853516 -102.24193359 263.13041016 -103.32568359 262.51416016 C-103.32568359 261.85416016 -103.32568359 261.19416016 -103.32568359 260.51416016 C-104.06818359 260.41103516 -104.81068359 260.30791016 -105.57568359 260.20166016 C-108.52303549 259.46482218 -110.10951433 258.56616873 -112.32568359 256.51416016 C-112.32568359 255.85416016 -112.32568359 255.19416016 -112.32568359 254.51416016 C-113.10943359 254.20478516 -113.89318359 253.89541016 -114.70068359 253.57666016 C-117.32568359 252.51416016 -117.32568359 252.51416016 -119.32568359 251.51416016 C-119.32568359 250.52416016 -119.32568359 249.53416016 -119.32568359 248.51416016 C-120.31568359 248.51416016 -121.30568359 248.51416016 -122.32568359 248.51416016 C-122.32568359 247.85416016 -122.32568359 247.19416016 -122.32568359 246.51416016 C-122.88255859 246.26666016 -123.43943359 246.01916016 -124.01318359 245.76416016 C-126.74979273 244.28491198 -129.00219229 242.57948576 -131.32568359 240.51416016 C-131.32568359 239.85416016 -131.32568359 239.19416016 -131.32568359 238.51416016 C-132.31568359 238.18416016 -133.30568359 237.85416016 -134.32568359 237.51416016 C-134.32568359 236.52416016 -134.32568359 235.53416016 -134.32568359 234.51416016 C-134.98568359 234.51416016 -135.64568359 234.51416016 -136.32568359 234.51416016 C-141.32568359 229.03796968 -141.32568359 229.03796968 -141.32568359 226.51416016 C-142.31568359 226.18416016 -143.30568359 225.85416016 -144.32568359 225.51416016 C-144.32568359 224.19416016 -144.32568359 222.87416016 -144.32568359 221.51416016 C-144.98568359 221.51416016 -145.64568359 221.51416016 -146.32568359 221.51416016 C-150.32568359 216.22004251 -150.32568359 216.22004251 -150.32568359 212.51416016 C-150.98568359 212.51416016 -151.64568359 212.51416016 -152.32568359 212.51416016 C-152.65568359 210.53416016 -152.98568359 208.55416016 -153.32568359 206.51416016 C-153.98568359 206.51416016 -154.64568359 206.51416016 -155.32568359 206.51416016 C-155.65568359 204.53416016 -155.98568359 202.55416016 -156.32568359 200.51416016 C-156.98568359 200.51416016 -157.64568359 200.51416016 -158.32568359 200.51416016 C-160.71876185 194.40367878 -162.73847709 188.47925988 -163.83349609 181.99853516 C-164.30396383 179.36388935 -164.30396383 179.36388935 -165.37255859 176.30712891 C-166.5098222 171.78137908 -166.54784605 167.71429892 -166.45068359 163.07666016 C-166.44166016 162.24972656 -166.43263672 161.42279297 -166.42333984 160.57080078 C-166.39999871 158.55179307 -166.36413648 156.53293659 -166.32568359 154.51416016 C-166.98568359 154.51416016 -167.64568359 154.51416016 -168.32568359 154.51416016 C-168.32568359 147.91416016 -168.32568359 141.31416016 -168.32568359 134.51416016 C-167.66568359 134.51416016 -167.00568359 134.51416016 -166.32568359 134.51416016 C-167.31568359 132.03916016 -167.31568359 132.03916016 -168.32568359 129.51416016 C-167.66568359 129.51416016 -167.00568359 129.51416016 -166.32568359 129.51416016 C-166.41269531 128.54542969 -166.41269531 128.54542969 -166.50146484 127.55712891 C-167.35176575 109.79798721 -159.57399452 93.29742237 -152.32568359 77.51416016 C-151.66568359 77.51416016 -151.00568359 77.51416016 -150.32568359 77.51416016 C-149.91576172 76.42748047 -149.91576172 76.42748047 -149.49755859 75.31884766 C-146.39560862 67.8948474 -141.87125946 61.31180765 -136.32568359 55.51416016 C-135.66568359 55.51416016 -135.00568359 55.51416016 -134.32568359 55.51416016 C-134.03693359 54.91603516 -133.74818359 54.31791016 -133.45068359 53.70166016 C-132.32568359 51.51416016 -132.32568359 51.51416016 -130.32568359 48.51416016 C-129.66568359 48.51416016 -129.00568359 48.51416016 -128.32568359 48.51416016 C-127.99568359 47.52416016 -127.66568359 46.53416016 -127.32568359 45.51416016 C-126.66568359 45.51416016 -126.00568359 45.51416016 -125.32568359 45.51416016 C-124.99568359 44.52416016 -124.66568359 43.53416016 -124.32568359 42.51416016 C-123.66568359 42.51416016 -123.00568359 42.51416016 -122.32568359 42.51416016 C-122.32568359 41.85416016 -122.32568359 41.19416016 -122.32568359 40.51416016 C-121.33568359 40.18416016 -120.34568359 39.85416016 -119.32568359 39.51416016 C-118.66568359 38.52416016 -118.00568359 37.53416016 -117.32568359 36.51416016 C-116.66568359 36.51416016 -116.00568359 36.51416016 -115.32568359 36.51416016 C-114.99568359 35.52416016 -114.66568359 34.53416016 -114.32568359 33.51416016 C-113.33568359 33.51416016 -112.34568359 33.51416016 -111.32568359 33.51416016 C-111.32568359 32.85416016 -111.32568359 32.19416016 -111.32568359 31.51416016 C-109.67568359 31.18416016 -108.02568359 30.85416016 -106.32568359 30.51416016 C-106.32568359 29.52416016 -106.32568359 28.53416016 -106.32568359 27.51416016 C-105.66181641 27.19962891 -104.99794922 26.88509766 -104.31396484 26.56103516 C-98.69734114 23.8596121 -98.69734114 23.8596121 -93.63818359 20.26416016 C-90.61688451 17.97777166 -88.04735208 17.80605572 -84.32568359 17.51416016 C-84.32568359 16.85416016 -84.32568359 16.19416016 -84.32568359 15.51416016 C-77.96249585 12.69938534 -71.52359842 10.66565442 -64.79296875 8.94921875 C-61.34499268 8.06648798 -57.98460066 7.09995469 -54.63818359 5.88916016 C-45.22266953 2.65092728 -35.18636402 2.15674004 -25.32568359 1.51416016 C-23.09626906 1.35084258 -20.86709502 1.18420622 -18.63818359 1.01416016 C-17.03910156 0.89427734 -17.03910156 0.89427734 -15.40771484 0.77197266 C-11.77523798 0.46811528 -8.16050954 0.05829906 -4.54443359 -0.39990234 C-2.32568359 -0.48583984 -2.32568359 -0.48583984 0 0 Z " fill="#FCFCFC" transform="translate(264.32568359375,96.48583984375)"/>
<path d="M0 0 C5.56487422 0.00589686 11.12942652 -0.01143656 16.69424725 -0.03434467 C21.00834608 -0.04900767 25.32236482 -0.04996595 29.63648415 -0.04683495 C31.6918688 -0.04734807 33.74725794 -0.05258423 35.80261803 -0.06264687 C38.64435323 -0.07490051 41.48542496 -0.06829632 44.32714844 -0.05664062 C45.17206848 -0.06428436 46.01698853 -0.0719281 46.88751221 -0.07980347 C49.21659851 -0.05854797 49.21659851 -0.05854797 52.90649414 0.31567383 C53.89649414 1.80067383 53.89649414 1.80067383 54.90649414 3.31567383 C12.99649414 3.31567383 -28.91350586 3.31567383 -72.09350586 3.31567383 C-72.09350586 2.98567383 -72.09350586 2.65567383 -72.09350586 2.31567383 C-48.081903 0.02634958 -24.1002533 -0.02792467 0 0 Z " fill="#EAEAEA" transform="translate(379.093505859375,427.684326171875)"/>
<path d="M0 0 C0.92277237 0.16076523 1.84554474 0.32153046 2.79627991 0.48716736 C7.93701087 1.21603349 13.07592115 1.17665823 18.25952148 1.20532227 C19.37245071 1.21522186 20.48537994 1.22512146 21.6320343 1.23532104 C25.29503279 1.26680095 28.95804423 1.29163994 32.62109375 1.31640625 C35.16700062 1.33698744 37.71290416 1.35798422 40.25880432 1.37937927 C46.26509786 1.42885373 52.27140873 1.47415 58.27774912 1.51740164 C65.11940784 1.56690309 71.96102026 1.62177306 78.80263412 1.67708123 C92.86837948 1.79067026 106.93416935 1.89755891 121 2 C121 2.33 121 2.66 121 3 C80.74 3 40.48 3 -1 3 C-0.67 2.01 -0.34 1.02 0 0 Z " fill="#DFDFDF" transform="translate(92,428)"/>
<path d="M0 0 C-1 1 -1 1 -3.36012268 1.12025452 C-4.40603073 1.11803391 -5.45193878 1.11581329 -6.52954102 1.11352539 C-7.71068985 1.11344986 -8.89183868 1.11337433 -10.10877991 1.11329651 C-11.3941716 1.10813522 -12.67956329 1.10297394 -14.00390625 1.09765625 C-15.31205795 1.0962413 -16.62020966 1.09482635 -17.96800232 1.09336853 C-21.45162859 1.0895441 -24.93521339 1.07971446 -28.41882324 1.06866455 C-31.97126708 1.05844882 -35.52371759 1.05387056 -39.07617188 1.04882812 C-46.05079832 1.03809212 -53.02539717 1.0210166 -60 1 C-60.33 0.34 -60.66 -0.32 -61 -1 C-53.34213135 -1.17686942 -45.68409277 -1.34283137 -38.02569008 -1.49477577 C-34.46978295 -1.56567064 -30.91403884 -1.64035562 -27.35839844 -1.72363281 C-23.27296669 -1.81915357 -19.1873618 -1.89831341 -15.1015625 -1.9765625 C-13.82133209 -2.00875885 -12.54110168 -2.0409552 -11.22207642 -2.0741272 C-10.04100311 -2.09429901 -8.85992981 -2.11447083 -7.64306641 -2.13525391 C-6.59937897 -2.15746002 -5.55569153 -2.17966614 -4.4803772 -2.20254517 C-2 -2 -2 -2 0 0 Z " fill="#F2F2F2" transform="translate(400,391)"/>
<path d="M0 0 C0.33 0 0.66 0 1 0 C1.01030746 0.5593222 1.02061493 1.11864441 1.03123474 1.69491577 C1.1391881 7.5021358 1.25379498 13.30919714 1.37231445 19.11621094 C1.41569919 21.28512256 1.45737161 23.45406913 1.49731445 25.62304688 C1.55493139 28.73578435 1.61865038 31.84834535 1.68359375 34.9609375 C1.70030624 35.934935 1.71701874 36.9089325 1.73423767 37.91244507 C1.75418289 38.81322784 1.77412811 39.71401062 1.79467773 40.64208984 C1.81799416 41.83455826 1.81799416 41.83455826 1.84178162 43.05111694 C1.88441725 45.07997774 1.88441725 45.07997774 3 47 C1.68 47 0.36 47 -1 47 C-1.02527002 40.46721214 -1.04283292 33.93443679 -1.05493164 27.40161133 C-1.05997317 25.17732268 -1.06680623 22.95303737 -1.07543945 20.72875977 C-1.08751298 17.53921691 -1.09322996 14.34971771 -1.09765625 11.16015625 C-1.10281754 10.15912369 -1.10797882 9.15809113 -1.11329651 8.12672424 C-1.11337204 7.20584518 -1.11344757 6.28496613 -1.11352539 5.33618164 C-1.115746 4.52121719 -1.11796661 3.70625275 -1.12025452 2.86659241 C-1 1 -1 1 0 0 Z " fill="#EFEFEF" transform="translate(438,380)"/>
<path d="M0 0 C0.77403168 0.02361099 1.54806335 0.04722198 2.34555054 0.07154846 C4.8216978 0.14822063 7.29753509 0.23222941 9.7734375 0.31640625 C11.45050558 0.3696234 13.12758887 0.42236382 14.8046875 0.47460938 C18.91946773 0.60384053 23.03398475 0.73965271 27.1484375 0.87890625 C23.50538886 3.30760534 20.84121411 3.135663 16.63671875 3.07421875 C15.90849411 3.07138885 15.18026947 3.06855896 14.42997742 3.06564331 C12.10679613 3.05445882 9.78400203 3.02935791 7.4609375 3.00390625 C5.8847712 2.99387419 4.30859885 2.98474873 2.73242188 2.9765625 C-1.12905517 2.95452521 -4.99024321 2.92000766 -8.8515625 2.87890625 C-9.1815625 2.21890625 -9.5115625 1.55890625 -9.8515625 0.87890625 C-6.72067379 -0.68653811 -3.42442227 -0.12257966 0 0 Z " fill="#F0F0F0" transform="translate(139.8515625,389.12109375)"/>
<path d="M0 0 C0.99 0.33 1.98 0.66 3 1 C4.5960654 8.82072047 3.22518358 16.2236282 2 24 C1.67 24 1.34 24 1 24 C-0.29235715 19.08497242 -0.11135517 14.22709898 -0.0625 9.1875 C-0.05798828 8.30384766 -0.05347656 7.42019531 -0.04882812 6.50976562 C-0.03709866 4.33981441 -0.01916495 2.16989828 0 0 Z " fill="#EEEEEE" transform="translate(428,233)"/>
<path d="M0 0 C0.33 0 0.66 0 1 0 C1.33 1.98 1.66 3.96 2 6 C2.33 6 2.66 6 3 6 C3.05447047 7.41623216 3.09300508 8.83308191 3.125 10.25 C3.14820313 11.03890625 3.17140625 11.8278125 3.1953125 12.640625 C2.9828378 15.20731941 2.28654105 16.7916067 1 19 C-0.00926479 14.84373632 -0.10239579 10.95634906 -0.0625 6.6875 C-0.05347656 5.43324219 -0.04445313 4.17898437 -0.03515625 2.88671875 C-0.01775391 1.45779297 -0.01775391 1.45779297 0 0 Z " fill="#F4F4F4" transform="translate(428,238)"/>
<path d="M0 0 C1.32 0.33 2.64 0.66 4 1 C4 3.64 4 6.28 4 9 C3.01 9.495 3.01 9.495 2 10 C1.34 6.7 0.68 3.4 0 0 Z " fill="#F0F0F0" transform="translate(96,226)"/>
</svg>
