<?xml version="1.0" encoding="UTF-8"?>
<svg version="1.1" xmlns="http://www.w3.org/2000/svg" width="360" height="360">
<path d="M0 0 C118.8 0 237.6 0 360 0 C360 118.8 360 237.6 360 360 C241.2 360 122.4 360 0 360 C0 241.2 0 122.4 0 0 Z " fill="#000000" transform="translate(0,0)"/>
<path d="M0 0 C14.8918017 13.78092133 25.34756802 36.29063791 26.65625 56.37890625 C26.70265625 57.72855469 26.70265625 57.72855469 26.75 59.10546875 C26.8015625 60.27335937 26.853125 61.44125 26.90625 62.64453125 C27.55567029 90.08253862 18.41390859 113.58393593 -0.43115234 133.671875 C-12.82396338 146.49451774 -28.00632359 153.20511337 -45.25 157.10546875 C-45.25 160.73546875 -45.25 164.36546875 -45.25 168.10546875 C-37.43912397 168.06120801 -29.62904792 167.99125707 -21.81860352 167.89794922 C-19.16385189 167.86762075 -16.50970245 167.84855736 -13.85473633 167.83447266 C-10.02902996 167.81295978 -6.20431359 167.76626275 -2.37890625 167.71484375 C-1.20042618 167.71361511 -0.02194611 167.71238647 1.19224548 167.71112061 C9.30891962 167.56828062 16.00025766 166.47062213 22.1875 160.91796875 C24.29160398 157.13058159 25.04670717 153.35298732 25.75 149.10546875 C28.06 149.10546875 30.37 149.10546875 32.75 149.10546875 C32.75 164.28546875 32.75 179.46546875 32.75 195.10546875 C2.39 195.10546875 -27.97 195.10546875 -59.25 195.10546875 C-58.92 187.51546875 -58.59 179.92546875 -58.25 172.10546875 C-58.2809375 168.65980469 -58.2809375 168.65980469 -58.3125 165.14453125 C-58.3330638 151.35831608 -58.3330638 151.35831608 -54.66845703 147.39501953 C-50.58568774 144.50071006 -46.0221106 142.8243044 -41.37646484 141.04345703 C-32.12423258 136.9622772 -25.88108145 127.71297615 -21.25 119.10546875 C-20.54230469 117.79449219 -20.54230469 117.79449219 -19.8203125 116.45703125 C-7.7464409 92.09495897 -9.36351345 57.71254263 -17.5 32.29296875 C-22.17195226 19.32761011 -28.57834471 9.69012264 -38.25 0.10546875 C-38.81074219 -0.48878906 -39.37148437 -1.08304688 -39.94921875 -1.6953125 C-53.01847154 -14.42154029 -72.97042344 -18.19483353 -90.41235352 -18.20922852 C-109.11065355 -17.92192852 -125.06260855 -9.75105715 -138.36328125 3.15625 C-157.74583703 23.74315876 -162.24949799 50.45144836 -161.56640625 77.69921875 C-160.71397663 98.42639634 -155.24452102 121.63051302 -139.48046875 136.296875 C-132.65287396 141.83308584 -125.28177274 145.65964693 -117.25 149.10546875 C-116.67571424 154.53101815 -116.10620641 159.95704053 -115.54101562 165.38354492 C-115.34830085 167.2274308 -115.15430788 169.07118357 -114.95898438 170.91479492 C-114.6775801 173.57306032 -114.40085849 176.23177907 -114.125 178.890625 C-114.03750488 179.70757339 -113.95000977 180.52452179 -113.85986328 181.3662262 C-113.77978027 182.14650681 -113.69969727 182.92678741 -113.6171875 183.73071289 C-113.51059814 184.74664268 -113.51059814 184.74664268 -113.40185547 185.78309631 C-113.19907089 188.88434326 -113.25 191.99759903 -113.25 195.10546875 C-143.61 195.10546875 -173.97 195.10546875 -205.25 195.10546875 C-205.25 179.92546875 -205.25 164.74546875 -205.25 149.10546875 C-203.27 149.10546875 -201.29 149.10546875 -199.25 149.10546875 C-199.0540625 149.91371094 -198.858125 150.72195312 -198.65625 151.5546875 C-196.64700051 159.09538039 -196.64700051 159.09538039 -191.1875 164.29296875 C-187.00587011 166.43595374 -183.45877414 167.23701612 -178.76879883 167.31079102 C-177.64786331 167.33073624 -176.5269278 167.35068146 -175.37202454 167.37123108 C-174.16257675 167.38794357 -172.95312897 167.40465607 -171.70703125 167.421875 C-170.46829758 167.4426561 -169.2295639 167.46343719 -167.95329285 167.48484802 C-164.66374744 167.53918672 -161.37417274 167.58942826 -158.08453369 167.63769531 C-154.72622186 167.68797521 -151.36799954 167.74362736 -148.00976562 167.79882812 C-141.4232462 167.90599926 -134.83665911 168.00727351 -128.25 168.10546875 C-128.25 164.47546875 -128.25 160.84546875 -128.25 157.10546875 C-129.735 156.77546875 -131.22 156.44546875 -132.75 156.10546875 C-155.96118917 149.75608539 -176.13869399 133.11761217 -188.328125 112.66015625 C-196.4031798 98.14601084 -199.48135158 83.41312396 -199.5625 66.91796875 C-199.57095947 65.2786438 -199.57095947 65.2786438 -199.57958984 63.60620117 C-199.36676439 39.73548133 -189.75916572 18.14755012 -173.25 1.10546875 C-172.78223145 0.61852539 -172.31446289 0.13158203 -171.83251953 -0.37011719 C-127.26259439 -45.9345652 -45.93975043 -38.68190791 0 0 Z " fill="#F9F9F9" transform="translate(266.25,97.89453125)"/>
</svg>
