<?xml version="1.0" encoding="UTF-8"?>
<svg version="1.1" xmlns="http://www.w3.org/2000/svg" width="104" height="117">
<path d="M0 0 C34.32 0 68.64 0 104 0 C104 38.61 104 77.22 104 117 C69.68 117 35.36 117 0 117 C0 78.39 0 39.78 0 0 Z " fill="#313131" transform="translate(0,0)"/>
<path d="M0 0 C4.60510437 3.80421665 7.64257323 7.71247822 8.30371094 13.79345703 C8.44037006 17.15907315 8.45819868 20.50676032 8.4375 23.875 C8.4674707 25.59396484 8.4674707 25.59396484 8.49804688 27.34765625 C8.49346161 35.31684478 7.49245939 40.96375856 2.21875 47.05859375 C1.6515625 47.51363281 1.084375 47.96867187 0.5 48.4375 C-0.0671875 48.91058594 -0.634375 49.38367188 -1.21875 49.87109375 C-6.36501058 53.13264925 -13.15685067 52.54975867 -19 52 C-24.01932122 49.67624018 -27.91286782 45.58544715 -31 41 C-32.76176213 35.49101007 -32.34939461 29.53327381 -32.4375 23.8125 C-32.48326172 22.61818359 -32.52902344 21.42386719 -32.57617188 20.19335938 C-32.67769043 12.17339352 -31.53549711 6.96733842 -26 1 C-17.97942406 -6.06925512 -8.82693099 -5.09373649 0 0 Z " fill="#EDEDED" transform="translate(62,17)"/>
<path d="M0 0 C2.75 0.5625 2.75 0.5625 4.05078125 2.13671875 C5.34945138 4.24756029 6.56522182 6.3858145 7.75 8.5625 C11.63726175 15.17084498 16.46267168 19.15101835 23.75 21.5625 C33.5019577 22.81460321 40.82036666 21.43942683 48.75 15.5625 C52.29084481 12.11483532 54.38111765 7.7879023 56.69921875 3.453125 C57.75 1.5625 57.75 1.5625 58.75 0.5625 C61.1875 0.3125 61.1875 0.3125 63.75 0.5625 C65.75 3.5625 65.75 3.5625 65.625 5.75 C62.45686501 15.93329102 56.12970914 23.5348566 46.625 28.5625 C42.63219229 30.37797976 39.11621339 31.27774695 34.75 31.5625 C34.75 33.2125 34.75 34.8625 34.75 36.5625 C35.44867188 36.53929687 36.14734375 36.51609375 36.8671875 36.4921875 C37.77726562 36.47414062 38.68734375 36.45609375 39.625 36.4375 C40.98238281 36.40269531 40.98238281 36.40269531 42.3671875 36.3671875 C44.75 36.5625 44.75 36.5625 46.75 38.5625 C46.42028521 41.85964793 46.1273161 43.1851839 43.75 45.5625 C39.45546793 46.0221469 35.12877182 45.88649779 30.8125 45.875 C29.00362305 45.89916992 29.00362305 45.89916992 27.15820312 45.92382812 C25.42666992 45.92479492 25.42666992 45.92479492 23.66015625 45.92578125 C22.59933838 45.92876221 21.53852051 45.93174316 20.44555664 45.93481445 C17.75 45.5625 17.75 45.5625 15.86499023 44.20385742 C14.75 42.5625 14.75 42.5625 15 39.9375 C15.75 37.5625 15.75 37.5625 16.75 36.5625 C18.43608966 36.49044489 20.12500659 36.47863932 21.8125 36.5 C22.73160156 36.50902344 23.65070312 36.51804688 24.59765625 36.52734375 C25.30792969 36.53894531 26.01820312 36.55054688 26.75 36.5625 C26.75 34.9125 26.75 33.2625 26.75 31.5625 C26.1209375 31.47613281 25.491875 31.38976562 24.84375 31.30078125 C18.44229061 30.24993927 13.96342272 28.38177148 8.75 24.5625 C7.88375 23.985 7.0175 23.4075 6.125 22.8125 C1.4149809 18.35037664 -2.17540436 12.71579096 -4.25 6.5625 C-3.60672515 0.90168129 -3.60672515 0.90168129 0 0 Z " fill="#EDEDED" transform="translate(19.25,53.4375)"/>
<path d="M0 0 C3.6578218 2.03993908 5.66946174 3.50419262 8 7 C8.43954425 10.9437864 8.32414984 14.90939592 8.3125 18.875 C8.32861328 19.96425781 8.34472656 21.05351563 8.36132812 22.17578125 C8.36229492 23.75552734 8.36229492 23.75552734 8.36328125 25.3671875 C8.36626221 26.32737793 8.36924316 27.28756836 8.37231445 28.27685547 C7.93220576 31.49585376 6.88138388 33.37440509 5 36 C1.01675806 38.67993169 -3.35963697 38.83543078 -8 38 C-10.75569447 35.81840855 -12.43588747 34.12822506 -14 31 C-14.29599687 27.06875325 -14.27802989 23.1285823 -14.3125 19.1875 C-14.35600586 17.5468457 -14.35600586 17.5468457 -14.40039062 15.87304688 C-14.46453189 7.7764455 -14.46453189 7.7764455 -12.09765625 3.8203125 C-8.1352059 0.38176155 -5.31478688 -0.63777443 0 0 Z " fill="#323232" transform="translate(53,22)"/>
</svg>
